<svg xmlns="http://www.w3.org/2000/svg" xmlns:xlink="http://www.w3.org/1999/xlink" viewBox="0 0 205 207"><defs><style>.cls-1{fill:none;}.cls-2{isolation:isolate;}.cls-3{fill:url(#linear-gradient);}.cls-13,.cls-4,.cls-6{mix-blend-mode:multiply;}.cls-4{fill:url(#radial-gradient);}.cls-5{fill:url(#linear-gradient-2);}.cls-6{fill:url(#radial-gradient-2);}.cls-10,.cls-15,.cls-16,.cls-7{mix-blend-mode:overlay;}.cls-7{fill:url(#linear-gradient-3);}.cls-8{opacity:0.5;}.cls-9{clip-path:url(#clip-path);}.cls-11{fill:#333;}.cls-12{fill:#e5e5e5;}.cls-13{fill:url(#radial-gradient-3);}.cls-14{fill:url(#linear-gradient-4);}.cls-15{fill:url(#linear-gradient-5);}.cls-16{fill:url(#linear-gradient-6);}.cls-17{fill:url(#linear-gradient-7);}</style><linearGradient id="linear-gradient" x1="102.5" y1="205" x2="102.5" gradientUnits="userSpaceOnUse"><stop offset="0" stop-color="#e6e6e6"/><stop offset="1" stop-color="#a8a8a8"/></linearGradient><radialGradient id="radial-gradient" cx="39.33" cy="154.28" r="99.5" gradientTransform="translate(-34.41 26.22) rotate(-45)" gradientUnits="userSpaceOnUse"><stop offset="0.82" stop-color="#6e6e6e"/><stop offset="0.84" stop-color="#858585"/><stop offset="0.87" stop-color="#b0b0b0"/><stop offset="0.91" stop-color="#d2d2d2"/><stop offset="0.94" stop-color="#ebebeb"/><stop offset="0.97" stop-color="#fafafa"/><stop offset="1" stop-color="#fff"/></radialGradient><linearGradient id="linear-gradient-2" x1="-17.92" y1="211.54" x2="104.38" y2="89.24" gradientTransform="translate(-34.41 26.22) rotate(-45)" gradientUnits="userSpaceOnUse"><stop offset="0" stop-color="#8a8a8a"/><stop offset="1" stop-color="#f0f0f0"/></linearGradient><radialGradient id="radial-gradient-2" cx="43.23" cy="150.39" r="86.48" gradientTransform="translate(-34.41 26.22) rotate(-45)" gradientUnits="userSpaceOnUse"><stop offset="0.74" stop-color="#fff"/><stop offset="1" stop-color="#e3e3e3"/></radialGradient><linearGradient id="linear-gradient-3" x1="102.5" y1="205" x2="102.5" gradientUnits="userSpaceOnUse"><stop offset="0" stop-color="#dbdbdb"/><stop offset="1" stop-color="#595959"/></linearGradient><clipPath id="clip-path"><circle class="cls-1" cx="102.5" cy="101.99" r="86.48"/></clipPath><radialGradient id="radial-gradient-3" cx="38.28" cy="155.34" r="77.24" gradientTransform="translate(-34.41 26.22) rotate(-45)" gradientUnits="userSpaceOnUse"><stop offset="0.78" stop-color="#6e6e6e"/><stop offset="0.8" stop-color="#858585"/><stop offset="0.85" stop-color="#b0b0b0"/><stop offset="0.89" stop-color="#d2d2d2"/><stop offset="0.93" stop-color="#ebebeb"/><stop offset="0.97" stop-color="#fafafa"/><stop offset="1" stop-color="#fff"/></radialGradient><linearGradient id="linear-gradient-4" x1="-2.42" y1="196.04" x2="88.88" y2="104.74" gradientTransform="translate(-34.41 26.22) rotate(-45)" gradientUnits="userSpaceOnUse"><stop offset="0" stop-color="#dbdbdb"/><stop offset="1" stop-color="#d7d7d7"/></linearGradient><linearGradient id="linear-gradient-5" x1="102.5" y1="166.55" x2="102.5" y2="101.49" gradientUnits="userSpaceOnUse"><stop offset="0" stop-color="#212121"/><stop offset="1" stop-color="gray"/></linearGradient><linearGradient id="linear-gradient-6" x1="102.5" y1="102.49" x2="102.5" y2="37.44" gradientUnits="userSpaceOnUse"><stop offset="0" stop-color="gray"/><stop offset="1" stop-color="#e8e8e8"/></linearGradient><linearGradient id="linear-gradient-7" x1="60.01" y1="133.6" x2="83.01" y2="110.6" gradientTransform="translate(-34.41 26.22) rotate(-45)" gradientUnits="userSpaceOnUse"><stop offset="0" stop-color="#fcfcfc"/><stop offset="1" stop-color="#a8a8a8"/></linearGradient></defs><g class="cls-2"><g id="Layer_2" data-name="Layer 2"><g id="Layer_2-2" data-name="Layer 2"><circle class="cls-3" cx="102.5" cy="102.5" r="102.5"/><path class="cls-4" d="M172.86,37.14a99.5,99.5,0,1,1-140.72,0A99.52,99.52,0,0,1,172.86,37.14Z"/><circle class="cls-5" cx="102.5" cy="101.99" r="86.48"/><circle class="cls-6" cx="102.5" cy="101.99" r="86.48"/><path class="cls-7" d="M102.5,1A101.5,101.5,0,1,1,1,102.5,101.61,101.61,0,0,1,102.5,1Zm0-1A102.5,102.5,0,1,0,205,102.5,102.5,102.5,0,0,0,102.5,0Z"/><g class="cls-8"><g class="cls-9"><g class="cls-10"><rect class="cls-11" x="100.45" y="12.52" width="1" height="61.33" transform="translate(-1.45 3.55) rotate(-2)"/></g><g class="cls-10"><rect class="cls-12" x="99.45" y="12.55" width="1" height="61.33" transform="matrix(1, -0.03, 0.03, 1, -1.45, 3.51)"/></g><g class="cls-10"><rect class="cls-11" x="95.33" y="12.88" width="1" height="61.33" transform="translate(-4.59 12) rotate(-7)"/></g><g class="cls-10"><rect class="cls-12" x="94.33" y="13" width="1" height="61.33" transform="translate(-4.61 11.88) rotate(-7)"/></g><g class="cls-10"><rect class="cls-11" x="90.26" y="13.68" width="1" height="61.33" transform="translate(-7.24 19.84) rotate(-12)"/></g><g class="cls-10"><rect class="cls-12" x="89.28" y="13.89" width="1" height="61.33" transform="translate(-7.3 19.64) rotate(-12)"/></g><g class="cls-10"><rect class="cls-11" x="85.28" y="14.92" width="1" height="61.33" transform="matrix(0.96, -0.29, 0.29, 0.96, -9.58, 27.07)"/></g><g class="cls-10"><rect class="cls-12" x="84.32" y="15.22" width="1" height="61.33" transform="translate(-9.71 26.8) rotate(-17)"/></g><g class="cls-10"><rect class="cls-11" x="80.43" y="16.6" width="1" height="61.33" transform="translate(-11.81 33.76) rotate(-22)"/></g><g class="cls-10"><rect class="cls-12" x="79.5" y="16.97" width="1" height="61.33" transform="translate(-12.02 33.44) rotate(-22)"/></g><g class="cls-10"><rect class="cls-11" x="75.74" y="18.68" width="1" height="61.33" transform="translate(-14.1 39.99) rotate(-27)"/></g><g class="cls-10"><rect class="cls-12" x="74.85" y="19.14" width="1" height="61.33" transform="translate(-14.4 39.64) rotate(-27)"/></g><g class="cls-10"><rect class="cls-11" x="71.25" y="21.17" width="1" height="61.33" transform="translate(-16.57 45.9) rotate(-32)"/></g><g class="cls-10"><rect class="cls-12" x="70.4" y="21.7" width="1" height="61.33" transform="translate(-16.98 45.53) rotate(-32)"/></g><g class="cls-10"><rect class="cls-11" x="67" y="24.04" width="1" height="61.33" transform="translate(-19.33 51.64) rotate(-37)"/></g><g class="cls-10"><rect class="cls-12" x="66.2" y="24.65" width="1" height="61.33" transform="matrix(0.8, -0.6, 0.6, 0.8, -19.86, 51.28)"/></g><g class="cls-10"><rect class="cls-11" x="63.01" y="27.27" width="1" height="61.33" transform="translate(-22.46 57.38) rotate(-42)"/></g><g class="cls-10"><rect class="cls-12" x="62.27" y="27.94" width="1" height="61.33" transform="translate(-23.1 57.05) rotate(-42)"/></g><g class="cls-10"><rect class="cls-11" x="59.32" y="30.84" width="1" height="61.33" transform="translate(-25.96 63.31) rotate(-47)"/></g><g class="cls-10"><rect class="cls-12" x="58.64" y="31.57" width="1" height="61.33" transform="translate(-26.71 63.04) rotate(-47)"/></g><g class="cls-10"><rect class="cls-11" x="55.95" y="34.71" width="1" height="61.33" transform="translate(-29.82 69.61) rotate(-52)"/></g><g class="cls-10"><rect class="cls-12" x="55.34" y="35.5" width="1" height="61.33" transform="translate(-30.68 69.43) rotate(-52)"/></g><g class="cls-10"><rect class="cls-11" x="52.94" y="38.87" width="1" height="61.33" transform="translate(-33.98 76.48) rotate(-57)"/></g><g class="cls-10"><rect class="cls-12" x="52.39" y="39.71" width="1" height="61.33" transform="translate(-34.93 76.4) rotate(-57)"/></g><g class="cls-10"><rect class="cls-11" x="50.29" y="43.27" width="1" height="61.33" transform="translate(-38.33 84.07) rotate(-62)"/></g><g class="cls-10"><rect class="cls-12" x="49.83" y="44.15" width="1" height="61.33" transform="translate(-39.36 84.13) rotate(-62)"/></g><g class="cls-10"><rect class="cls-11" x="48.05" y="47.88" width="1" height="61.33" transform="translate(-42.72 92.54) rotate(-67)"/></g><g class="cls-10"><rect class="cls-12" x="47.66" y="48.8" width="1" height="61.33" transform="translate(-43.81 92.74) rotate(-67)"/></g><g class="cls-10"><polygon class="cls-11" points="75.72 93.29 17.39 74.34 17.7 73.39 76.03 92.34 75.72 93.29"/></g><g class="cls-10"><rect class="cls-12" x="45.9" y="53.62" width="1" height="61.33" transform="translate(-48.1 102.37) rotate(-72)"/></g><g class="cls-10"><polygon class="cls-11" points="75.06 95.66 15.3 81.86 15.53 80.89 75.29 94.68 75.06 95.66"/></g><g class="cls-10"><rect class="cls-12" x="44.57" y="58.58" width="1" height="61.33" transform="translate(-52.03 113.08) rotate(-77)"/></g><g class="cls-10"><rect class="cls-11" x="43.82" y="62.64" width="1" height="61.34" transform="translate(-54.25 124.21) rotate(-82)"/></g><g class="cls-10"><rect class="cls-12" x="43.68" y="63.63" width="1" height="61.33" transform="translate(-55.35 124.92) rotate(-82)"/></g><g class="cls-10"><rect class="cls-11" x="43.28" y="67.75" width="1" height="61.34" transform="translate(-56.79 136.99) rotate(-87)"/></g><g class="cls-10"><rect class="cls-12" x="43.23" y="68.74" width="1" height="61.33" transform="translate(-57.83 137.88) rotate(-87)"/></g><g class="cls-10"><rect class="cls-11" x="13.03" y="103.05" width="61.34" height="1" transform="translate(-3.59 1.59) rotate(-2)"/></g><g class="cls-10"><rect class="cls-12" x="13.06" y="104.04" width="61.33" height="1" transform="matrix(1, -0.03, 0.03, 1, -3.62, 1.59)"/></g><g class="cls-10"><rect class="cls-11" x="13.38" y="108.17" width="61.34" height="1" transform="translate(-12.92 6.18) rotate(-7)"/></g><g class="cls-10"><rect class="cls-12" x="13.51" y="109.16" width="61.33" height="1" transform="translate(-13.03 6.2) rotate(-7)"/></g><g class="cls-10"><rect class="cls-11" x="14.19" y="113.23" width="61.34" height="1" transform="translate(-22.67 11.81) rotate(-12)"/></g><g class="cls-10"><rect class="cls-12" x="14.4" y="114.21" width="61.33" height="1" transform="translate(-22.86 11.88) rotate(-12)"/></g><g class="cls-10"><rect class="cls-11" x="15.43" y="118.21" width="61.33" height="1" transform="translate(-32.7 18.67) rotate(-17)"/></g><g class="cls-10"><rect class="cls-12" x="15.72" y="119.17" width="61.33" height="1" transform="translate(-32.96 18.79) rotate(-17)"/></g><g class="cls-10"><rect class="cls-11" x="17.1" y="123.06" width="61.34" height="1" transform="translate(-42.81 26.89) rotate(-22)"/></g><g class="cls-10"><rect class="cls-12" x="17.48" y="123.99" width="61.33" height="1" transform="matrix(0.93, -0.37, 0.37, 0.93, -43.13, 27.1)"/></g><g class="cls-10"><rect class="cls-11" x="19.19" y="127.75" width="61.34" height="1" transform="translate(-52.79 36.62) rotate(-27)"/></g><g class="cls-10"><rect class="cls-12" x="19.65" y="128.64" width="61.33" height="1" transform="translate(-53.14 36.92) rotate(-27)"/></g><g class="cls-10"><rect class="cls-11" x="21.68" y="132.24" width="61.34" height="1" transform="translate(-62.39 47.91) rotate(-32)"/></g><g class="cls-10"><rect class="cls-12" x="22.21" y="133.09" width="61.33" height="1" transform="matrix(0.85, -0.53, 0.53, 0.85, -62.75, 48.32)"/></g><g class="cls-10"><rect class="cls-11" x="24.55" y="136.49" width="61.34" height="1" transform="translate(-71.33 60.82) rotate(-37)"/></g><g class="cls-10"><rect class="cls-12" x="25.15" y="137.29" width="61.33" height="1" transform="translate(-71.68 61.34) rotate(-37)"/></g><g class="cls-10"><rect class="cls-11" x="27.78" y="140.48" width="61.34" height="1" transform="translate(-79.32 75.32) rotate(-42)"/></g><g class="cls-10"><rect class="cls-12" x="28.45" y="141.23" width="61.33" height="1" transform="translate(-79.65 75.96) rotate(-42)"/></g><g class="cls-10"><rect class="cls-11" x="31.35" y="144.17" width="61.34" height="1" transform="translate(-86.09 91.36) rotate(-47)"/></g><g class="cls-10"><rect class="cls-12" x="32.08" y="144.85" width="61.33" height="1" transform="translate(-86.35 92.11) rotate(-47)"/></g><g class="cls-10"><rect class="cls-11" x="35.22" y="147.54" width="61.34" height="1" transform="translate(-91.33 108.82) rotate(-52)"/></g><g class="cls-10"><rect class="cls-12" x="36.01" y="148.15" width="61.33" height="1" transform="translate(-91.51 109.67) rotate(-52)"/></g><g class="cls-10"><rect class="cls-11" x="39.37" y="150.55" width="61.34" height="1" transform="translate(-94.79 127.53) rotate(-57)"/></g><g class="cls-10"><rect class="cls-12" x="40.21" y="151.1" width="61.33" height="1" transform="translate(-94.86 128.47) rotate(-57)"/></g><g class="cls-10"><polygon class="cls-11" points="89.28 126.85 60.49 181.01 59.6 180.54 88.4 126.38 89.28 126.85"/></g><g class="cls-10"><polygon class="cls-12" points="90.16 127.32 61.37 181.48 60.48 181.01 89.28 126.85 90.16 127.32"/></g><g class="cls-10"><rect class="cls-11" x="48.39" y="155.45" width="61.34" height="1" transform="translate(-95.38 167.79) rotate(-67)"/></g><g class="cls-10"><rect class="cls-12" x="49.31" y="155.84" width="61.33" height="1" transform="translate(-95.18 168.86) rotate(-67)"/></g><g class="cls-10"><rect class="cls-11" x="53.18" y="157.28" width="61.34" height="1" transform="translate(-92.12 188.78) rotate(-72)"/></g><g class="cls-10"><rect class="cls-12" x="54.13" y="157.59" width="61.33" height="1" transform="translate(-91.76 189.88) rotate(-72)"/></g><g class="cls-10"><rect class="cls-11" x="58.11" y="158.7" width="61.34" height="1" transform="translate(-86.31 209.9) rotate(-77)"/></g><g class="cls-10"><rect class="cls-12" x="59.09" y="158.92" width="61.33" height="1" transform="translate(-85.77 211.01) rotate(-77)"/></g><g class="cls-10"><rect class="cls-11" x="63.15" y="159.67" width="61.34" height="1" transform="translate(-77.85 230.79) rotate(-82)"/></g><g class="cls-10"><rect class="cls-12" x="64.14" y="159.81" width="61.33" height="1" transform="matrix(0.14, -0.99, 0.99, 0.14, -77.14, 231.88)"/></g><g class="cls-10"><rect class="cls-11" x="68.25" y="160.21" width="61.34" height="1" transform="translate(-66.74 251.09) rotate(-87)"/></g><g class="cls-10"><rect class="cls-12" x="69.25" y="160.26" width="61.33" height="1" transform="translate(-65.85 252.13) rotate(-87)"/></g><g class="cls-10"><rect class="cls-11" x="103.55" y="130.13" width="1" height="61.34" transform="translate(-5.55 3.73) rotate(-2)"/></g><g class="cls-10"><rect class="cls-12" x="104.55" y="130.1" width="1" height="61.33" transform="translate(-5.54 3.76) rotate(-2)"/></g><g class="cls-10"><rect class="cls-11" x="108.67" y="129.77" width="1" height="61.34" transform="translate(-18.74 14.5) rotate(-7)"/></g><g class="cls-10"><rect class="cls-12" x="109.66" y="129.65" width="1" height="61.33" transform="translate(-18.71 14.62) rotate(-7)"/></g><g class="cls-10"><rect class="cls-11" x="113.74" y="128.97" width="1" height="61.34" transform="translate(-30.7 27.24) rotate(-12)"/></g><g class="cls-10"><rect class="cls-12" x="114.72" y="128.76" width="1" height="61.33" transform="translate(-30.63 27.44) rotate(-12)"/></g><g class="cls-10"><rect class="cls-11" x="118.72" y="127.72" width="1" height="61.34" transform="translate(-41.1 41.78) rotate(-17)"/></g><g class="cls-10"><rect class="cls-12" x="119.68" y="127.43" width="1" height="61.33" transform="translate(-40.97 42.04) rotate(-17)"/></g><g class="cls-10"><rect class="cls-11" x="123.57" y="126.05" width="1" height="61.34" transform="matrix(0.93, -0.37, 0.37, 0.93, -49.68, 57.89)"/></g><g class="cls-10"><rect class="cls-12" x="124.5" y="125.68" width="1" height="61.33" transform="translate(-49.46 58.21) rotate(-22)"/></g><g class="cls-10"><rect class="cls-11" x="128.26" y="123.96" width="1" height="61.34" transform="translate(-56.17 75.31) rotate(-27)"/></g><g class="cls-10"><rect class="cls-12" x="129.15" y="123.51" width="1" height="61.33" transform="translate(-55.86 75.66) rotate(-27)"/></g><g class="cls-10"><rect class="cls-11" x="132.75" y="121.48" width="1" height="61.34" transform="translate(-60.38 93.73) rotate(-32)"/></g><g class="cls-10"><rect class="cls-12" x="133.6" y="120.95" width="1" height="61.33" transform="translate(-59.97 94.1) rotate(-32)"/></g><g class="cls-10"><rect class="cls-11" x="137" y="118.6" width="1" height="61.34" transform="translate(-62.15 112.81) rotate(-37)"/></g><g class="cls-10"><rect class="cls-12" x="137.8" y="118" width="1" height="61.33" transform="translate(-61.62 113.17) rotate(-37)"/></g><g class="cls-10"><polygon class="cls-11" points="121.34 122.92 162.38 168.5 161.64 169.17 120.6 123.59 121.34 122.92"/></g><g class="cls-10"><rect class="cls-12" x="141.73" y="114.71" width="1" height="61.33" transform="translate(-60.74 132.51) rotate(-42)"/></g><g class="cls-10"><polygon class="cls-11" points="123.09 121.19 167.95 163.03 167.27 163.76 122.41 121.93 123.09 121.19"/></g><g class="cls-10"><polygon class="cls-12" points="123.77 120.46 168.63 162.29 167.95 163.03 123.09 121.2 123.77 120.46"/></g><g class="cls-10"><polygon class="cls-11" points="124.69 119.33 173.02 157.09 172.41 157.88 124.08 120.11 124.69 119.33"/></g><g class="cls-10"><polygon class="cls-12" points="125.3 118.54 173.63 156.3 173.02 157.09 124.69 119.33 125.3 118.54"/></g><g class="cls-10"><polygon class="cls-11" points="126.11 117.33 177.56 150.73 177.01 151.57 125.57 118.17 126.11 117.33"/></g><g class="cls-10"><polygon class="cls-12" points="126.66 116.49 178.1 149.89 177.56 150.74 126.11 117.33 126.66 116.49"/></g><g class="cls-10"><polygon class="cls-11" points="127.36 115.21 181.52 144.01 181.05 144.89 126.89 116.09 127.36 115.21"/></g><g class="cls-10"><polygon class="cls-12" points="127.83 114.33 181.99 143.12 181.52 144.01 127.36 115.21 127.83 114.33"/></g><g class="cls-10"><polygon class="cls-11" points="128.42 112.99 184.88 136.96 184.49 137.88 128.03 113.91 128.42 112.99"/></g><g class="cls-10"><polygon class="cls-12" points="128.81 112.07 185.27 136.04 184.88 136.96 128.42 112.99 128.81 112.07"/></g><g class="cls-10"><polygon class="cls-11" points="129.28 110.69 187.62 129.65 187.3 130.6 128.97 111.64 129.28 110.69"/></g><g class="cls-10"><polygon class="cls-12" points="129.59 109.74 187.92 128.69 187.61 129.65 129.28 110.69 129.59 109.74"/></g><g class="cls-10"><polygon class="cls-11" points="129.94 108.33 189.7 122.12 189.47 123.1 129.71 109.3 129.94 108.33"/></g><g class="cls-10"><polygon class="cls-12" points="130.16 107.35 189.92 121.15 189.7 122.12 129.94 108.33 130.16 107.35"/></g><g class="cls-10"><polygon class="cls-11" points="130.38 105.91 191.13 114.45 190.98 115.44 130.25 106.9 130.38 105.91"/></g><g class="cls-10"><rect class="cls-12" x="160.32" y="79.02" width="1" height="61.33" transform="translate(29.82 253.67) rotate(-82)"/></g><g class="cls-10"><polygon class="cls-11" points="130.62 103.47 191.87 106.67 191.82 107.67 130.57 104.46 130.62 103.47"/></g><g class="cls-10"><rect class="cls-12" x="160.77" y="73.9" width="1" height="61.33" transform="translate(48.4 260.15) rotate(-87)"/></g><g class="cls-10"><polygon class="cls-11" points="130.64 101.01 191.94 98.87 191.97 99.87 130.68 102.01 130.64 101.01"/></g><g class="cls-10"><rect class="cls-12" x="130.6" y="98.94" width="61.33" height="1" transform="translate(-3.37 5.69) rotate(-2)"/></g><g class="cls-10"><polygon class="cls-11" points="130.45 98.56 191.33 91.08 191.45 92.08 130.57 99.55 130.45 98.56"/></g><g class="cls-10"><rect class="cls-12" x="130.16" y="93.83" width="61.33" height="1" transform="translate(-10.3 20.3) rotate(-7)"/></g><g class="cls-10"><polygon class="cls-11" points="130.04 96.14 190.04 83.38 190.25 84.36 130.25 97.11 130.04 96.14"/></g><g class="cls-10"><rect class="cls-12" x="129.27" y="88.77" width="61.33" height="1" transform="translate(-15.07 35.2) rotate(-12)"/></g><g class="cls-10"><polygon class="cls-11" points="129.43 93.76 188.09 75.83 188.38 76.78 129.72 94.71 129.43 93.76"/></g><g class="cls-10"><rect class="cls-12" x="127.94" y="83.81" width="61.33" height="1" transform="translate(-17.72 50.06) rotate(-17)"/></g><g class="cls-10"><polygon class="cls-11" points="128.61 91.44 185.48 68.47 185.85 69.39 128.98 92.37 128.61 91.44"/></g><g class="cls-10"><rect class="cls-12" x="126.19" y="78.99" width="61.33" height="1" transform="translate(-18.36 64.55) rotate(-22)"/></g><g class="cls-10"><polygon class="cls-11" points="127.59 89.21 182.24 61.36 182.69 62.25 128.04 90.1 127.59 89.21"/></g><g class="cls-10"><rect class="cls-12" x="124.02" y="74.34" width="61.33" height="1" transform="translate(-17.12 78.38) rotate(-27)"/></g><g class="cls-10"><polygon class="cls-11" points="126.38 87.07 178.4 54.56 178.93 55.42 126.91 87.92 126.38 87.07"/></g><g class="cls-10"><polygon class="cls-12" points="125.85 86.22 177.86 53.72 178.4 54.57 126.38 87.07 125.85 86.22"/></g><g class="cls-10"><polygon class="cls-11" points="124.99 85.05 173.97 48.13 174.57 48.93 125.59 85.84 124.99 85.05"/></g><g class="cls-10"><polygon class="cls-12" points="124.39 84.25 173.37 47.34 173.97 48.13 124.99 85.05 124.39 84.25"/></g><g class="cls-10"><polygon class="cls-11" points="123.42 83.15 169.01 42.11 169.68 42.85 124.09 83.89 123.42 83.15"/></g><g class="cls-10"><polygon class="cls-12" points="122.76 82.41 168.34 41.37 169.01 42.11 123.42 83.15 122.76 82.41"/></g><g class="cls-10"><polygon class="cls-11" points="121.7 81.4 163.54 36.54 164.27 37.22 122.44 82.08 121.7 81.4"/></g><g class="cls-10"><polygon class="cls-12" points="120.97 80.72 162.8 35.86 163.54 36.54 121.7 81.4 120.97 80.72"/></g><g class="cls-10"><polygon class="cls-11" points="119.83 79.8 157.6 31.47 158.39 32.09 120.62 80.42 119.83 79.8"/></g><g class="cls-10"><polygon class="cls-12" points="119.05 79.19 156.81 30.86 157.6 31.47 119.83 79.8 119.05 79.19"/></g><g class="cls-10"><polygon class="cls-11" points="117.83 78.38 151.24 26.93 152.08 27.48 118.67 78.92 117.83 78.38"/></g><g class="cls-10"><polygon class="cls-12" points="117 77.83 150.4 26.39 151.24 26.94 117.83 78.38 117 77.83"/></g><g class="cls-10"><polygon class="cls-11" points="115.72 77.13 144.52 22.97 145.4 23.44 116.6 77.59 115.72 77.13"/></g><g class="cls-10"><polygon class="cls-12" points="114.84 76.66 143.63 22.51 144.52 22.97 115.72 77.13 114.84 76.66"/></g><g class="cls-10"><polygon class="cls-11" points="113.5 76.07 137.47 19.61 138.39 20 114.42 76.46 113.5 76.07"/></g><g class="cls-10"><polygon class="cls-12" points="112.58 75.68 136.55 19.23 137.47 19.61 113.5 76.07 112.58 75.68"/></g><g class="cls-10"><polygon class="cls-11" points="111.2 75.21 130.16 16.87 131.11 17.19 112.15 75.52 111.2 75.21"/></g><g class="cls-10"><polygon class="cls-12" points="110.25 74.9 129.2 16.57 130.16 16.88 111.2 75.21 110.25 74.9"/></g><g class="cls-10"><polygon class="cls-11" points="108.83 74.56 122.63 14.79 123.61 15.02 109.81 74.78 108.83 74.56"/></g><g class="cls-10"><polygon class="cls-12" points="107.86 74.33 121.66 14.57 122.63 14.79 108.83 74.56 107.86 74.33"/></g><g class="cls-10"><polygon class="cls-11" points="106.42 74.11 114.95 13.37 115.95 13.51 107.41 74.24 106.42 74.11"/></g><g class="cls-10"><polygon class="cls-12" points="105.43 73.97 113.97 13.23 114.96 13.37 106.42 74.11 105.43 73.97"/></g><g class="cls-10"><polygon class="cls-11" points="103.97 73.87 107.18 12.62 108.18 12.67 104.97 73.92 103.97 73.87"/></g><g class="cls-10"><polygon class="cls-12" points="102.97 73.82 106.19 12.57 107.19 12.62 103.97 73.87 102.97 73.82"/></g></g></g><circle class="cls-13" cx="102.5" cy="108.99" r="77.24"/><circle class="cls-14" cx="102.5" cy="101.99" r="64.56"/><path class="cls-15" d="M148.15,146.64A64.54,64.54,0,0,1,38,101.49a64.54,64.54,0,1,0,129.08,0A64.3,64.3,0,0,1,148.15,146.64Z"/><path class="cls-16" d="M56.85,57.34A64.54,64.54,0,0,1,167,102.49a64.54,64.54,0,1,0-129.08,0A64.31,64.31,0,0,1,56.85,57.34Z"/><path class="cls-17" d="M114,50.49a16.26,16.26,0,1,1-23,0A16.27,16.27,0,0,1,114,50.49Z"/></g></g></g></svg>